<mxfile host="app.diagrams.net" modified="2024-04-03T06:50:52.050Z" agent="Mozilla/5.0 (Macintosh; Intel Mac OS X 10_15_7) AppleWebKit/537.36 (KHTML, like Gecko) Chrome/123.0.0.0 Safari/537.36" etag="5Lx6faravuZXw7TRe2IJ" version="24.0.7" type="device">
  <diagram name="Страница — 1" id="CrJ080NFnx5UMRq6oB-1">
    <mxGraphModel dx="825" dy="524" grid="1" gridSize="10" guides="1" tooltips="1" connect="1" arrows="1" fold="1" page="1" pageScale="1" pageWidth="827" pageHeight="1169" math="0" shadow="0">
      <root>
        <mxCell id="0" />
        <mxCell id="1" parent="0" />
        <mxCell id="Mh1AMMoeHMJnT7qI7zsG-10" value="" style="endArrow=none;dashed=1;html=1;dashPattern=1 3;strokeWidth=2;rounded=0;entryX=0.5;entryY=1;entryDx=0;entryDy=0;" parent="1" target="icmPHPR5q2C8trYXrLY3-5" edge="1">
          <mxGeometry width="50" height="50" relative="1" as="geometry">
            <mxPoint x="280" y="520" as="sourcePoint" />
            <mxPoint x="440" y="300" as="targetPoint" />
          </mxGeometry>
        </mxCell>
        <mxCell id="Mh1AMMoeHMJnT7qI7zsG-11" style="edgeStyle=orthogonalEdgeStyle;rounded=0;orthogonalLoop=1;jettySize=auto;html=1;exitX=0.5;exitY=0.5;exitDx=0;exitDy=0;exitPerimeter=0;endArrow=none;endFill=0;dashed=1;dashPattern=1 4;strokeWidth=2;" parent="1" source="icmPHPR5q2C8trYXrLY3-1" edge="1">
          <mxGeometry relative="1" as="geometry">
            <mxPoint x="95" y="540" as="targetPoint" />
          </mxGeometry>
        </mxCell>
        <mxCell id="icmPHPR5q2C8trYXrLY3-1" value="Клиент" style="shape=umlActor;verticalLabelPosition=bottom;verticalAlign=top;html=1;outlineConnect=0;" parent="1" vertex="1">
          <mxGeometry x="80" y="140" width="30" height="60" as="geometry" />
        </mxCell>
        <mxCell id="icmPHPR5q2C8trYXrLY3-3" value="" style="rounded=0;whiteSpace=wrap;html=1;" parent="1" vertex="1">
          <mxGeometry x="90" y="230" width="10" height="290" as="geometry" />
        </mxCell>
        <mxCell id="icmPHPR5q2C8trYXrLY3-5" value="Система поиска потерянных вещей" style="rounded=0;whiteSpace=wrap;html=1;" parent="1" vertex="1">
          <mxGeometry x="220" y="140" width="120" height="60" as="geometry" />
        </mxCell>
        <mxCell id="Mh1AMMoeHMJnT7qI7zsG-1" value="" style="rounded=0;whiteSpace=wrap;html=1;movable=1;resizable=1;rotatable=1;deletable=1;editable=1;locked=0;connectable=1;" parent="1" vertex="1">
          <mxGeometry x="275" y="230" width="10" height="80" as="geometry" />
        </mxCell>
        <mxCell id="Mh1AMMoeHMJnT7qI7zsG-2" value="" style="endArrow=openAsync;html=1;rounded=0;exitX=1;exitY=0;exitDx=0;exitDy=0;entryX=0;entryY=0;entryDx=0;entryDy=0;endFill=0;" parent="1" source="icmPHPR5q2C8trYXrLY3-3" target="Mh1AMMoeHMJnT7qI7zsG-1" edge="1">
          <mxGeometry width="50" height="50" relative="1" as="geometry">
            <mxPoint x="130" y="250" as="sourcePoint" />
            <mxPoint x="440" y="300" as="targetPoint" />
          </mxGeometry>
        </mxCell>
        <mxCell id="Mh1AMMoeHMJnT7qI7zsG-3" value="Описание утерянных вещей" style="text;html=1;align=center;verticalAlign=middle;resizable=0;points=[];autosize=1;strokeColor=none;fillColor=none;" parent="1" vertex="1">
          <mxGeometry x="100" y="235" width="180" height="30" as="geometry" />
        </mxCell>
        <mxCell id="Mh1AMMoeHMJnT7qI7zsG-4" value="" style="endArrow=open;html=1;rounded=0;endFill=0;edgeStyle=orthogonalEdgeStyle;exitX=1;exitY=0.25;exitDx=0;exitDy=0;" parent="1" source="Mh1AMMoeHMJnT7qI7zsG-1" edge="1">
          <mxGeometry width="50" height="50" relative="1" as="geometry">
            <mxPoint x="350" y="230" as="sourcePoint" />
            <mxPoint x="285" y="280" as="targetPoint" />
            <Array as="points">
              <mxPoint x="285" y="251" />
              <mxPoint x="320" y="251" />
              <mxPoint x="320" y="280" />
            </Array>
          </mxGeometry>
        </mxCell>
        <mxCell id="Mh1AMMoeHMJnT7qI7zsG-5" value="Поиск&lt;div&gt;&amp;nbsp;релевантных&amp;nbsp;&lt;/div&gt;&lt;div&gt;вещей&lt;/div&gt;" style="text;html=1;align=center;verticalAlign=middle;resizable=0;points=[];autosize=1;strokeColor=none;fillColor=none;" parent="1" vertex="1">
          <mxGeometry x="315" y="240" width="100" height="60" as="geometry" />
        </mxCell>
        <mxCell id="Mh1AMMoeHMJnT7qI7zsG-6" style="edgeStyle=orthogonalEdgeStyle;rounded=0;orthogonalLoop=1;jettySize=auto;html=1;exitX=0;exitY=0.25;exitDx=0;exitDy=0;endArrow=open;endFill=0;dashed=1;" parent="1" source="Mh1AMMoeHMJnT7qI7zsG-1" edge="1">
          <mxGeometry relative="1" as="geometry">
            <mxPoint x="110" y="299" as="targetPoint" />
            <Array as="points">
              <mxPoint x="275" y="299" />
            </Array>
          </mxGeometry>
        </mxCell>
        <mxCell id="Mh1AMMoeHMJnT7qI7zsG-12" value="" style="endArrow=none;dashed=1;html=1;dashPattern=1 3;strokeWidth=2;rounded=0;entryX=0.5;entryY=0.5;entryDx=0;entryDy=0;entryPerimeter=0;" parent="1" source="Mh1AMMoeHMJnT7qI7zsG-13" target="Mh1AMMoeHMJnT7qI7zsG-29" edge="1">
          <mxGeometry width="50" height="50" relative="1" as="geometry">
            <mxPoint x="509.5" y="550" as="sourcePoint" />
            <mxPoint x="550" y="270" as="targetPoint" />
          </mxGeometry>
        </mxCell>
        <mxCell id="Mh1AMMoeHMJnT7qI7zsG-14" value="" style="endArrow=none;dashed=1;html=1;strokeWidth=2;rounded=0;entryX=0.5;entryY=1;entryDx=0;entryDy=0;dashPattern=1 4;" parent="1" target="Mh1AMMoeHMJnT7qI7zsG-13" edge="1">
          <mxGeometry width="50" height="50" relative="1" as="geometry">
            <mxPoint x="510" y="520" as="sourcePoint" />
            <mxPoint x="510" y="200" as="targetPoint" />
          </mxGeometry>
        </mxCell>
        <mxCell id="Mh1AMMoeHMJnT7qI7zsG-13" value="" style="rounded=0;whiteSpace=wrap;html=1;" parent="1" vertex="1">
          <mxGeometry x="505" y="360" width="10" height="70" as="geometry" />
        </mxCell>
        <mxCell id="Mh1AMMoeHMJnT7qI7zsG-15" value="" style="endArrow=openAsync;html=1;rounded=0;endFill=0;exitX=1.405;exitY=0.453;exitDx=0;exitDy=0;exitPerimeter=0;" parent="1" edge="1" source="icmPHPR5q2C8trYXrLY3-3">
          <mxGeometry width="50" height="50" relative="1" as="geometry">
            <mxPoint x="110" y="360" as="sourcePoint" />
            <mxPoint x="500" y="360" as="targetPoint" />
          </mxGeometry>
        </mxCell>
        <mxCell id="Mh1AMMoeHMJnT7qI7zsG-16" value="Запрос на возврат&lt;div&gt;&amp;nbsp;утерянных вещей&lt;/div&gt;" style="text;html=1;align=center;verticalAlign=middle;resizable=0;points=[];autosize=1;strokeColor=none;fillColor=none;" parent="1" vertex="1">
          <mxGeometry x="125" y="370" width="130" height="40" as="geometry" />
        </mxCell>
        <mxCell id="Mh1AMMoeHMJnT7qI7zsG-17" value="Система управления утерянными вещами" style="rounded=0;whiteSpace=wrap;html=1;" parent="1" vertex="1">
          <mxGeometry x="630" y="140" width="120" height="60" as="geometry" />
        </mxCell>
        <mxCell id="Mh1AMMoeHMJnT7qI7zsG-21" value="" style="endArrow=none;dashed=1;html=1;dashPattern=1 3;strokeWidth=2;rounded=0;entryX=0.5;entryY=1;entryDx=0;entryDy=0;" parent="1" source="Mh1AMMoeHMJnT7qI7zsG-22" target="Mh1AMMoeHMJnT7qI7zsG-17" edge="1">
          <mxGeometry width="50" height="50" relative="1" as="geometry">
            <mxPoint x="690" y="802" as="sourcePoint" />
            <mxPoint x="689.5" y="220" as="targetPoint" />
          </mxGeometry>
        </mxCell>
        <mxCell id="Mh1AMMoeHMJnT7qI7zsG-23" value="" style="endArrow=none;dashed=1;html=1;dashPattern=1 3;strokeWidth=2;rounded=0;entryX=0.5;entryY=1;entryDx=0;entryDy=0;" parent="1" target="Mh1AMMoeHMJnT7qI7zsG-22" edge="1">
          <mxGeometry width="50" height="50" relative="1" as="geometry">
            <mxPoint x="690" y="530" as="sourcePoint" />
            <mxPoint x="690" y="200" as="targetPoint" />
          </mxGeometry>
        </mxCell>
        <mxCell id="Mh1AMMoeHMJnT7qI7zsG-22" value="" style="rounded=0;whiteSpace=wrap;html=1;" parent="1" vertex="1">
          <mxGeometry x="685" y="390" width="10" height="120" as="geometry" />
        </mxCell>
        <mxCell id="Mh1AMMoeHMJnT7qI7zsG-25" value="" style="endArrow=open;html=1;rounded=0;endFill=0;" parent="1" edge="1">
          <mxGeometry width="50" height="50" relative="1" as="geometry">
            <mxPoint x="520" y="390" as="sourcePoint" />
            <mxPoint x="680" y="390" as="targetPoint" />
          </mxGeometry>
        </mxCell>
        <mxCell id="Mh1AMMoeHMJnT7qI7zsG-26" value="Сформированный запрос" style="text;html=1;align=center;verticalAlign=middle;resizable=0;points=[];autosize=1;strokeColor=none;fillColor=none;" parent="1" vertex="1">
          <mxGeometry x="510" y="395" width="170" height="30" as="geometry" />
        </mxCell>
        <mxCell id="Mh1AMMoeHMJnT7qI7zsG-27" value="" style="endArrow=open;html=1;rounded=0;endFill=0;edgeStyle=orthogonalEdgeStyle;exitX=1;exitY=0.25;exitDx=0;exitDy=0;" parent="1" edge="1">
          <mxGeometry width="50" height="50" relative="1" as="geometry">
            <mxPoint x="695" y="420" as="sourcePoint" />
            <mxPoint x="695" y="450" as="targetPoint" />
            <Array as="points">
              <mxPoint x="695" y="421" />
              <mxPoint x="730" y="421" />
              <mxPoint x="730" y="450" />
            </Array>
          </mxGeometry>
        </mxCell>
        <mxCell id="Mh1AMMoeHMJnT7qI7zsG-29" value="Оператор бюро находок" style="shape=umlActor;verticalLabelPosition=bottom;verticalAlign=top;html=1;outlineConnect=0;" parent="1" vertex="1">
          <mxGeometry x="495" y="140" width="30" height="60" as="geometry" />
        </mxCell>
        <mxCell id="Mh1AMMoeHMJnT7qI7zsG-43" value="Регистрация&lt;div&gt;&amp;nbsp;запроса&lt;/div&gt;" style="text;html=1;align=center;verticalAlign=middle;resizable=0;points=[];autosize=1;strokeColor=none;fillColor=none;" parent="1" vertex="1">
          <mxGeometry x="730" y="420" width="90" height="40" as="geometry" />
        </mxCell>
        <mxCell id="RPNybcwYIRDbecKvAkyd-1" value="Список вещей" style="text;html=1;align=center;verticalAlign=middle;resizable=0;points=[];autosize=1;strokeColor=none;fillColor=none;" parent="1" vertex="1">
          <mxGeometry x="120" y="298" width="100" height="30" as="geometry" />
        </mxCell>
        <mxCell id="RPNybcwYIRDbecKvAkyd-4" style="edgeStyle=orthogonalEdgeStyle;rounded=0;orthogonalLoop=1;jettySize=auto;html=1;strokeColor=default;align=center;verticalAlign=middle;fontFamily=Helvetica;fontSize=11;fontColor=default;labelBackgroundColor=default;endArrow=open;endFill=0;dashed=1;entryX=1.325;entryY=0.953;entryDx=0;entryDy=0;entryPerimeter=0;" parent="1" source="Mh1AMMoeHMJnT7qI7zsG-22" target="icmPHPR5q2C8trYXrLY3-3" edge="1">
          <mxGeometry relative="1" as="geometry">
            <Array as="points">
              <mxPoint x="170" y="505" />
              <mxPoint x="120" y="506" />
            </Array>
            <mxPoint x="120" y="505" as="targetPoint" />
          </mxGeometry>
        </mxCell>
        <mxCell id="RPNybcwYIRDbecKvAkyd-5" value="Утерянные вещи" style="text;html=1;align=center;verticalAlign=middle;resizable=0;points=[];autosize=1;strokeColor=none;fillColor=none;" parent="1" vertex="1">
          <mxGeometry x="330" y="508" width="120" height="30" as="geometry" />
        </mxCell>
      </root>
    </mxGraphModel>
  </diagram>
</mxfile>
